<svg xmlns="http://www.w3.org/2000/svg" viewBox="0 0 512 512">
  <rect width="512" height="512" rx="104" fill="#0a0a18"/>
  <rect x="36" y="36" width="440" height="440" rx="88" fill="#17122d" stroke="#7c5cff" stroke-width="8"/>
  <path d="M256 102c-20-38-4-69 31-82 2 40-12 67-41 82h10Z" fill="#59df89"/>
  <path d="M158 181c0-49 42-82 98-82s98 33 98 82v144c0 55-43 95-98 95s-98-40-98-95V181Z" fill="#ef4444"/>
  <path d="M256 99c56 0 98 33 98 82v144c0 55-43 95-98 95V99Z" fill="#f97316"/>
  <path d="M191 230h130M191 282h130" stroke="#fff3e6" stroke-width="20" stroke-linecap="round" opacity=".92"/>
  <circle cx="210" cy="180" r="15" fill="#fff3e6"/>
  <circle cx="302" cy="180" r="15" fill="#fff3e6"/>
</svg>
